<svg width="1600" height="1000" viewBox="0 0 1600 1000" fill="none" xmlns="http://www.w3.org/2000/svg">
  <defs>
    <linearGradient id="bg2" x1="140" y1="60" x2="1460" y2="940" gradientUnits="userSpaceOnUse">
      <stop stop-color="#EEF5FF"/>
      <stop offset="0.45" stop-color="#DCE7F6"/>
      <stop offset="1" stop-color="#A8D9EC"/>
    </linearGradient>
    <linearGradient id="card2" x1="0" y1="120" x2="0" y2="840" gradientUnits="userSpaceOnUse">
      <stop stop-color="#FFFFFF" stop-opacity="0.97"/>
      <stop offset="1" stop-color="#F4F8FD" stop-opacity="0.99"/>
    </linearGradient>
    <linearGradient id="glow2" x1="0" y1="0" x2="0" y2="1">
      <stop stop-color="#8FDBFF"/>
      <stop offset="1" stop-color="#6AA5FF"/>
    </linearGradient>
    <linearGradient id="pearl" x1="0" y1="0" x2="1" y2="1">
      <stop stop-color="#FFF8FC"/>
      <stop offset="1" stop-color="#FFD6E8"/>
    </linearGradient>
    <filter id="shadow2" x="-20%" y="-20%" width="140%" height="150%">
      <feDropShadow dx="0" dy="18" stdDeviation="18" flood-color="#0E1D3A" flood-opacity="0.14"/>
    </filter>
  </defs>

  <rect width="1600" height="1000" rx="36" fill="url(#bg2)"/>
  <circle cx="1360" cy="160" r="170" fill="#FFFFFF" fill-opacity="0.45"/>
  <circle cx="210" cy="840" r="240" fill="#B9E4F3" fill-opacity="0.34"/>

  <text x="100" y="118" fill="#1B2D4F" font-family="Avenir Next, Helvetica, Arial, sans-serif" font-size="56" font-weight="700">Atlas Mascot Concept</text>
  <text x="100" y="170" fill="#355894" font-family="Avenir Next, Helvetica, Arial, sans-serif" font-size="24" font-weight="500">Aurorahare line • feminine-coded guardian path • cute opening, elegant payoff</text>

  <g filter="url(#shadow2)">
    <rect x="72" y="238" width="452" height="660" rx="34" fill="url(#card2)"/>
    <rect x="574" y="238" width="452" height="660" rx="34" fill="url(#card2)"/>
    <rect x="1076" y="238" width="452" height="660" rx="34" fill="url(#card2)"/>
  </g>

  <g>
    <circle cx="298" cy="490" r="138" fill="url(#glow2)" fill-opacity="0.15"/>
    <ellipse cx="298" cy="592" rx="100" ry="84" fill="#F2F7FF"/>
    <ellipse cx="300" cy="506" rx="74" ry="70" fill="#FFFDFE"/>
    <ellipse cx="252" cy="430" rx="22" ry="76" transform="rotate(-12 252 430)" fill="#FFFDFE"/>
    <ellipse cx="346" cy="430" rx="22" ry="76" transform="rotate(12 346 430)" fill="#FFFDFE"/>
    <ellipse cx="252" cy="420" rx="10" ry="44" transform="rotate(-12 252 420)" fill="#BCE7F4"/>
    <ellipse cx="346" cy="420" rx="10" ry="44" transform="rotate(12 346 420)" fill="#BCE7F4"/>
    <ellipse cx="270" cy="594" rx="28" ry="40" fill="#EAF4FF"/>
    <ellipse cx="326" cy="594" rx="28" ry="40" fill="#EAF4FF"/>
    <circle cx="286" cy="498" r="6" fill="#355894"/>
    <circle cx="332" cy="498" r="6" fill="#355894"/>
    <path d="M294 526C302 534 316 534 324 526" stroke="#7A90B4" stroke-width="5" stroke-linecap="round"/>
    <circle cx="308" cy="548" r="18" fill="url(#pearl)"/>
    <text x="110" y="310" fill="#386CD7" font-family="Avenir Next, Helvetica, Arial, sans-serif" font-size="24" font-weight="700">FORM 1</text>
    <text x="110" y="350" fill="#121C2D" font-family="Avenir Next, Helvetica, Arial, sans-serif" font-size="44" font-weight="700">Moppet</text>
    <text x="110" y="390" fill="#55627A" font-family="Avenir Next, Helvetica, Arial, sans-serif" font-size="20">Pearl-furred hare with oversized ears,</text>
    <text x="110" y="420" fill="#55627A" font-family="Avenir Next, Helvetica, Arial, sans-serif" font-size="20">soft paws, and a chest gem.</text>
    <text x="110" y="814" fill="#2A4E9E" font-family="Avenir Next, Helvetica, Arial, sans-serif" font-size="22" font-weight="600">Mood</text>
    <text x="184" y="814" fill="#55627A" font-family="Avenir Next, Helvetica, Arial, sans-serif" font-size="22">Cute and instantly readable.</text>
  </g>

  <g>
    <circle cx="800" cy="488" r="144" fill="url(#glow2)" fill-opacity="0.18"/>
    <ellipse cx="804" cy="606" rx="108" ry="80" fill="#EEF5FF"/>
    <path d="M734 598C736 540 764 492 812 494C862 496 892 548 884 606C876 654 844 694 796 694C748 694 732 646 734 598Z" fill="#FFFDFE"/>
    <ellipse cx="744" cy="446" rx="24" ry="94" transform="rotate(-16 744 446)" fill="#FFFDFE"/>
    <ellipse cx="866" cy="446" rx="24" ry="94" transform="rotate(16 866 446)" fill="#FFFDFE"/>
    <ellipse cx="744" cy="436" rx="11" ry="54" transform="rotate(-16 744 436)" fill="#BCE7F4"/>
    <ellipse cx="866" cy="436" rx="11" ry="54" transform="rotate(16 866 436)" fill="#BCE7F4"/>
    <path d="M866 640C908 650 932 678 940 722" stroke="#E3F0FF" stroke-width="22" stroke-linecap="round"/>
    <path d="M768 612C792 626 824 626 846 610" stroke="#B7C8DE" stroke-width="8" stroke-linecap="round"/>
    <circle cx="780" cy="522" r="7" fill="#355894"/>
    <circle cx="842" cy="522" r="7" fill="#355894"/>
    <circle cx="810" cy="564" r="20" fill="url(#pearl)"/>
    <text x="612" y="310" fill="#386CD7" font-family="Avenir Next, Helvetica, Arial, sans-serif" font-size="24" font-weight="700">FORM 2</text>
    <text x="612" y="350" fill="#121C2D" font-family="Avenir Next, Helvetica, Arial, sans-serif" font-size="44" font-weight="700">Glisshare</text>
    <text x="612" y="390" fill="#55627A" font-family="Avenir Next, Helvetica, Arial, sans-serif" font-size="20">Poised middle form with ribbon ears,</text>
    <text x="612" y="420" fill="#55627A" font-family="Avenir Next, Helvetica, Arial, sans-serif" font-size="20">sleeker limbs, brighter pearl core.</text>
    <text x="612" y="814" fill="#2A4E9E" font-family="Avenir Next, Helvetica, Arial, sans-serif" font-size="22" font-weight="600">Mood</text>
    <text x="686" y="814" fill="#55627A" font-family="Avenir Next, Helvetica, Arial, sans-serif" font-size="22">Premium, confident, still soft.</text>
  </g>

  <g>
    <circle cx="1302" cy="484" r="150" fill="url(#glow2)" fill-opacity="0.22"/>
    <circle cx="1304" cy="452" r="112" stroke="#BCE7F4" stroke-width="10" stroke-dasharray="14 18" opacity="0.86"/>
    <path d="M1220 620C1220 548 1260 500 1318 500C1386 500 1428 556 1414 636C1402 704 1360 754 1288 754C1244 754 1220 704 1220 620Z" fill="#FFFDFE"/>
    <ellipse cx="1242" cy="428" rx="26" ry="118" transform="rotate(-18 1242 428)" fill="#FFFDFE"/>
    <ellipse cx="1388" cy="430" rx="26" ry="126" transform="rotate(20 1388 430)" fill="#FFFDFE"/>
    <ellipse cx="1242" cy="420" rx="12" ry="72" transform="rotate(-18 1242 420)" fill="#BCE7F4"/>
    <ellipse cx="1388" cy="424" rx="12" ry="76" transform="rotate(20 1388 424)" fill="#BCE7F4"/>
    <path d="M1388 680C1450 694 1492 736 1502 800" stroke="#E8F4FF" stroke-width="24" stroke-linecap="round"/>
    <path d="M1272 634C1300 650 1342 648 1370 628" stroke="#B7C8DE" stroke-width="9" stroke-linecap="round"/>
    <circle cx="1286" cy="530" r="8" fill="#355894"/>
    <circle cx="1360" cy="530" r="8" fill="#355894"/>
    <circle cx="1326" cy="574" r="23" fill="url(#pearl)"/>
    <circle cx="1326" cy="456" r="16" fill="#FFF6FB"/>
    <path d="M1298 454L1326 428L1354 454" stroke="#FFD4E7" stroke-width="8" stroke-linecap="round"/>
    <text x="1114" y="310" fill="#386CD7" font-family="Avenir Next, Helvetica, Arial, sans-serif" font-size="24" font-weight="700">FORM 3</text>
    <text x="1114" y="350" fill="#121C2D" font-family="Avenir Next, Helvetica, Arial, sans-serif" font-size="44" font-weight="700">Aurielle</text>
    <text x="1114" y="390" fill="#55627A" font-family="Avenir Next, Helvetica, Arial, sans-serif" font-size="20">Elegant final guardian with aurora ears,</text>
    <text x="1114" y="420" fill="#55627A" font-family="Avenir Next, Helvetica, Arial, sans-serif" font-size="20">crescent tail, serene silhouette.</text>
    <text x="1114" y="814" fill="#2A4E9E" font-family="Avenir Next, Helvetica, Arial, sans-serif" font-size="22" font-weight="600">Mood</text>
    <text x="1188" y="814" fill="#55627A" font-family="Avenir Next, Helvetica, Arial, sans-serif" font-size="22">Graceful final payoff.</text>
  </g>
</svg>
